/* XPM */
static char *a3865bfccec444be925a1a8ba7d8043dxeoMzkv1QI6J6ATg[] = {
/* columns rows colors chars-per-pixel */
"64 64 10 1 ",
"  c #33260E",
". c #690804",
"X c #780602",
"o c #285C35",
"O c #14702D",
"+ c #15752D",
"@ c #246033",
"# c #524A23",
"$ c gray51",
"% c #B4B4B4",
/* pixels */
"O@@@@@@@o@O@o@@O@+@@@@O@OOo@o@@@@@O+@@@o@@@o@O@OooOO@@@O@@o@@@@@",
"@@o@@+@o@@@O@@ooO@O@oO@@o@Ooo+@oOo@oo@o@@@oo@@O@@@@O@o@@@@@@OO@@",
"@Oo@@@+@+oo@@o@Oo@@Oo@@@@+o@@O@oo@@Oo@OOOo@@o@@@@@@@o@o@oo@@@@@@",
"@@o+@@@o@Ooo@o@o@oOo@OO@@O@@ooO@@@@@Oo@ooo@Oo@@@@@O@@OO@@@@o@+@@",
"@@Oo@@@oO@@@@oo@ooO@OooO@@OOO@oO@@Ooo+@@O@@@@OO@+@@+@@@@@@@@@@@@",
"@o@O@o@o@@@@O@@@@@@@o@Oo@@oO@@o+o@@o@+@@o@o@O@@@@@@@o@@@@oo@O@o@",
"@O@oo@@O@@o@@@@oo@@@@@@@@o@@@@o@@@@@@@+oo@oo@oo@O@o@@@@@@@@@o@@o",
"@+@@oO@@@oo@@@@@@@o@@@oo@@O@@@@@@@@$$$$$$$$$$$$@@@@@@o@@@O@+OO@@",
"oo@o@o@@o@@@Oo@@+@O@+o@@o+@O@o@Oo@O$$$$$$$$$$$$O@@@@@@@@@@@@@@@@",
"@@@@O@@OoO@+@oo@@@o@@+@@@@o@o@O@o@@$$$$$$$$$$$$o@@@O+@@@@@@+@@@@",
"Oo@++O@@o@@@+oO+o@o@@OOO@@@oo@@O@oo$$$$$$$$$$$$+@@@o@oO@@O+@@@@@",
"@@Oo@@@@@+@@+OO@OO@@o@o@oo@XXXXXXXX%%%%%%%%%%%%$$$$O@@@@@O@@+@@O",
"@@@@+@@@@@@O@O@@@o@@o@@+oOOXXXXXXXX%%%%%%%%%%%%$$$$@@o@O@@@@O@@O",
"@@@@@@@@@o@@oO@@oo@@@O+@@@@XXXXXXXX%%%%%%%%%%%%$$$$@@+@@@@o@@@OO",
"@@O@@@OO@@o@oo@@@@@@o@@@@@oXXXXXXXX%%%%%%%%%%%%$$$$@o@@@@O@o@@@O",
"@O@@@@@@@@@@@@O@@@@@@XXXXXX........$$$$%%%%%%%%%%%%$$$$@@O@OOo@@",
"o@@@+o@@oO@O@@oo@@O@@XXXXXX........$$$$%%%%%%%%%%%%$$$$OO@@@@o@O",
"@O@@oo@@+@O@o+O@O@@@+XXXXXX........$$$$%%%%%%%%%%%%$$$$@+oo@o@@@",
"o@@o@@@O@@@o@@@@@ooO@XXXXXX........$$$$%%%%%%%%%%%%$$$$$$$$@@@@@",
"oo@@oo@@o@@@oXXXXXXXX..................$$$$%%%%%%%%%%%%$$$$oo@@@",
"@@@ooOooOooO@XXXXXXXX..................$$$$%%%%%%%%%%%%$$$$@@@o@",
"@@@@o@o@o@@oOXXXXXXXX..................$$$$%%%%%%%%%%%%$$$$@O@@@",
"+@@Ooo@@@@oO@XXXXXXXX..................$$$$%%%%%%%%%%%%$$$$O@o@@",
"o@o@o@+@oXXXX..............................$$$$%%%%%%%%$$$$oO@@@",
"@@@+@Ooo@XXXX..............................$$$$%%%%%%%%$$$$O@@@o",
"o@@@oOoOoXXXX..............................$$$$%%%%%%%%$$$$+@@OO",
"+oooo@+@@XXXX..............................$$$$%%%%%%%%$$$$@o@@@",
"@@@o+XXXX......................................$$$$$$$$$$$$oO@@@",
"@@Oo@XXXX......................................$$$$$$$$$$$$@OOOO",
"@@o@@XXXX......................................$$$$$$$$    oo@o@",
"@+@o@XXXX......................................$$$$$$$$    @@OoO",
"oO@O@XXXX..........................................####    @@@@@",
"O@@oOXXXX..........................................####    o@@@@",
"o@o@@XXXX..........................................####    +@OOO",
"o+O@oXXXX..........................................####    @@@o@",
"@o@@+XXXX......................................    ####    @@@@@",
"@@o@o    ......................................    ####    o@oo@",
"@@@@@    ......................................    ####    ooo+@",
"oo@o+    ......................................    ####    @@+@@",
"@@@@@    ..............................        o@@@        O@o+@",
"@@O@o    ..............................        @Ooo        o@o@O",
"@@@@o    ..............................        ooOo        +@@+@",
"o@@oO    ..............................        oo@O        @@o+@",
"o@@o@        ..................        @@ooooo@o@oo@+oOo@@@@o@@@",
"+@@o@        ..................        oooo@@@@O+oO+@@@@@@o+@@o@",
"O@@O@        ..................        o@Oooo@+@O@oO@+@@@+@@@@@O",
"@@@o@        ..................        @@o@o@@O@@@o@@OO@@@O@oO@@",
"o@@@@O@@o@o@@    ......        o@@@@@Oo@@O@o@@@o@@o@@+OO@@@Oo+@@",
"@@@o@@@@+o@@@    ......        @@oOOO@@@o@@@@@@+@@oo@@@@@@ooo@oo",
"@ooO@o@@o@o@@    ......        +@@@@@@o@O@o+oo@@@@+@@@oo@o@@@o@o",
"@O@@+@O@o@oO@    ......        ooo@O+@o@@@@@@@+@@@@o@O@@@@@@O@+@",
"@@o@o@@@@@@o@o@o       oO+@+@Ooo+o@@o@oo@o@o@@oo@@@@@o@oO@@+@@@@",
"@@@oO@+@@@o@o@@o       @@@Oo+@o@@o@oO@@o@o+O@o@@O@@+@@@Oo@@@@@@@",
"@o@@@@@@oO@@oo@@       @+oO@O@@ooO@@@@O@@@@ooo@@@oo+o@@@@@@@@@oo",
"ooo@@O@@oooo@+@o       @oo@@@@@O@OooO@o+o@@o@@ooo@@o@o@@@@@@o@@O",
"@+@@@@@@+@@@@@Oo       o@@OO@+o@@Oo@@@@o@@@OO@o@@@+@+ooo@@o@@@@O",
"o@@@@@o@o@@@@@@@       @@@+o@oO@@@@@oo@@@@@@@o@@o@@@@O@@oo@@oo+@",
"o@@O@oo@@O@o@@@@       o+@o@@+O@@@@o+@@@@@Oo@OO@@@@@@@O@@@@OO@@o",
"oo@@@@@O@@@@@Ooo       @@@@@+o@@@o@@@@@o+@oooOo@+O@O@+@@@@@@@@@@",
"o@@@@@@@ooo@@@@@       @o+@@o@@+o@@@oo@@@o@@O@o@@@@@+@o@@@Oo@@@o",
"@o@@@O@@oO@@@O@@       @@@@ooo@+@@@o@@o@+@oo@@o@@@@@O@@@+@@@O@@@",
"@+@Oo@+@@@oO@@oo       @O@@@O@o@O@@+@o@@@@@@@o+@@@@@@@O@+@@OOOOo",
"@@o+o@@O@o@O@@@O@@@OO@OO+@+@ooOO@@o@O@O@@@@@O+O@@o@@@o@@O@@@@O@@",
"@@@o@@@@@@@@@@@+@o@+o@ooO@@@@o@@@@@@@@@@O@@@@@@@@@@O@OoO@@@@@@o@"
};
