/* XPM */
static char *_150cf09745c44938731995372541418Q0k4Q8KCzrBS4F0C[] = {
/* columns rows colors chars-per-pixel */
"64 64 13 1 ",
"  c #163832",
". c #285C35",
"X c #14702D",
"o c #15752D",
"O c #246033",
"+ c #31ACB5",
"@ c #2FBFC2",
"# c #15C2CF",
"$ c #4AD6E8",
"% c #60DFE6",
"& c #6CE4EB",
"* c #80E6E8",
"= c #ADE9ED",
/* pixels */
"XOOOOOOO.OXO.OOXOoOOOOXOXX.O.OOOOOXoOOO.OOO.OXOX..XXOOOXOO.OOOOO",
"OO.OOoO.OOOXOO..XOXO.XOO.OX..oO.X.O..O.OOO..OOXOOOOXO.OOOOOOXXOO",
"OX.OOOoOo..OO.OX.OOX.OOOOo.OOXO..OOX.OXXX.OO.OOOOOOO.O.O..OOOOOO",
"OO.oOOO.OX..O.O.O.X.OXXOOXOO..XOOOOOX.O...OX.OOOOOXOOXXOOOO.OoOO",
"OOX.OOO.XOOOO..O..XOX..XOOXXXO.XOOX..oOOXOOOOXXOoOOoOOOOOOOOOOOO",
"O.OXO.O.OOOOXOOOOOOO.OX.OO.XOO.o.OO.OoOO.O.OXOOOOOOO.OOOO..OXO.O",
"OXO..OOXOO.OOOO..OOOOOOOO.OOOO.OOOOOOOo..O..O..OXO.OOOOOOOOO.OO.",
"OoOO.XOOO..OOOOOOO.OOO..OOXOOOOOOOOoXOOO.OO.XOOOOOOOO.OOOXOoXXOO",
"..O.O.OO.OOOX.OOoOXOo.OO.oOXO.OX.OX.O.OO.o..O.OXOOOOOOOOOOOOOOOO",
"OOOOXOOX.XOoO..OOO.OOoOOOO.O.OXO.OO..o.O...OXOX.OOOXoOOOOOOoOOOO",
"X.OooXOO.OOOo.Xo.O.OOXXXOOO..OOXO..O.OOO.oO.OoOoOOO.O.XOOXoOOOOO",
"OOX.OOOOOoOOoXXOXXOO.O.O..OO.oOOXOOOOOO...OOOXO...OXOOOOOXOOoOOX",
"OOOOoOOOOOOXOXOOO.OO.OOo.XX..O.OoOOO..O.OOOOX..XO.OOO.OXOOOOXOOX",
"OOOOOOOOO.OO.XOO..OOOXoOOOOO.OOo..OOo...O...OOOO.XOOOoOOOO.OOOXX",
"OOXOOOXXOO.O..OOOOOO.OOOOO.oOOO.O.XXOO.OXO....OOOOOO.OOOOXO.OOOX",
"OXOOOOOOOOOOOOXOOOOOO.OOX.OOXO.oXOX.OO.OXO..O..X.OX.OOOOOXOXX.OO",
".OOOo.OO.XOXOO..OOXOO.OX.O.OOXOX.OOOOOO.OO.OO..O.O.OXOOXXOOOO.OX",
"OXOO..OOoOXO.oXOXOOOoOOOOO             OOO.OOOOO.OOOOOOOo..O.OOO",
".OO.OOOXOOO.OOOOO..XOOOOO  ===========  ...O..OOXoOOOO.O.OXOOOOO",
"..OO..OO.OOO.OXOOXOXO..  ==============@  .o.OOO.OXXOXOOO.X..OOO",
"OOO..X..X..XO.X..X...OO ====&&&&&&&&===@@  .X.oOOOO.O.OO.XOOOO.O",
"OOOO.O.O.OO.X...OOOXXO ===&&**&&&&&&==$@@@ XOO.OO...OOOO.oOOXOOO",
"oOOX..OOOO.XOO.OO..XO  ===&&**&&&&&&==$$@@@ XOO.X.XX....OOOXO.OO",
".O.O.OoO.XO.O.XOOX..  ==&&**&&&&&&==$$$$@@@  OOXOOXOXOO.XO..XOOO",
"OOOoOX..OXo.X.O.XX.  ===&&**&&&&&&==$$$$@@@@  .O..OOOOO.OOXXOOO.",
".OOO.X.X..OOXO...XO ===&**&&==*********$$$@@@ .OOoOOOOOOOOOoOOXX",
"o....OoOOOO.XOOOXO. ==&&**&&==*********$$$@@@ O.O.o..XOOOO.O.OOO",
"OOO.oOoO....OO.XOX. ==&&&==%%%%%%%%%%%%+$$@@@ .OOOOO..XO.OO.XOOO",
"OOX.OoOOX.O.O..X.X. ==&&&==%%%%%%%%%%%%+$$$$+ OO.o.O.OoO...OXXXX",
"OO.OOOOX....OXOOX. ===&&&**%%%%%%%%%%%%+$$$$$  OXO.O.O.XOOo..O.O",
"OoO.OOo.OOOOOOO.OO ===&&&**%%%%%%%%%%%%+$$$@@@ .OOOXX.XXO..OOX.X",
".XOXO..OOO..OX..O. ===&&&**%%%%%%%%%%%%+$$$@@@ OO.O..O.oOO.OOOOO",
"XOO.XO.ooOOOOXXoOO ===&&&&+%%%%%%%%%%%%+$$$@@@ XOXXO.XOOOXo.OOOO",
".O.OOOOOXOX..OOOOo ===&&&&+%%%%%%%%%%%%+$$$@@@ o.OOXOOOO..OoOXXX",
".oXO.O.XO...Oooo.O ===***&+%%%%%%%%%%%%+$$$@@@ O.OOOOX.O.XXOOO.O",
"O.OOoO.OOOOOo.O.O. ===***&+%%%%%%%%%%%%+$$$$$+ OOX.O.O...ooOOOOO",
"OO.O.OOXOOOOOO.OO. ===***&+%%%%%%%%%%%%+$$$$$+ OOOOO.OOO.OO.O..O",
"OOOOO.OOO.O.XO.X.O ===####+%%%%%%%%%%%%+++++++ .oO...OXXO.....oO",
"..O.o.XXO..O.OOXXX ==######+%%%%%%%%%%+@@@@+++ .OOXoOOOOOO.OOoOO",
"OOOOOOO.XXOO.OO.OO  #######++++++++++++@@@@@@  .OOO.OXOOOO.XO.oO",
"OOXO.OX.O.O.OO..OX  ######++@@@@@@@@@@++@@@@@  OX..O.XO.O.O.O.OX",
"OOOO.O....XOOXOO..  ######++@@@@@@@@@@++@@@@@  ..X..oOO.OXOoOOoO",
".OO.XO.OOoOOOX.O... ######+@@@@@@@@@@@@+@@@@@ O..OXOOOOOoOOOO.oO",
".OO.O.O.OOO.OXOOOX.  #####+@@@@@@@@@@@@+@@@@  O.O..Oo.X.OOOO.OOO",
"oOO.OOOO.XXOOXOO..oX  ####+@@@@@@@@@@@@+@@@  OOXo.XoOOOOOO.oOO.O",
"XOOXOXOO.OO.XOXO.OO..  ##++@@@@@@@@@@@@+++  .OoOXO.XOoOOOoOOOOOX",
"OOO.OOOOoOOO...OOXOOOO   ++@@@@@@@@@@@@++  .OOXOOO.OOXXOOOXO.XOO",
".OOOOXOO.O.OO.OOOX.O.O.                    .OOO.OO.OOoXXOOOX.oOO",
"OOO.OOOOo.OOOO.OXoXoOO.O.                OOOOOOoOO..OOOOOO...O..",
"O..XO.OO.O.OO.OXO.O..OOOO....XOoOOOOOO.OXO.o..OOOOoOOO..O.OOO.O.",
"OXOOoOXO.O.XOOOOO...OOOO.OOO.O....OXoO.OOOOOOOoOOOO.OXOOOOOOXOoO",
"OO.O.OOOOOO.O.O.XOOXXOO.XoOoOX..o.OO.O..O.O.OO..OOOOO.O.XOOoOOOO",
"OOO.XOoOOO.O.OO.X.OXXXOOOOX.oO.OO.O.XOO.O.oXO.OOXOOoOOOX.OOOOOOO",
"O.OOOOOO.XOO..OOOOO.OOoOo.XOXOO..XOOOOXOOOO...OOO..o.OOOOOOOOO..",
"...OOXOO....OoO..O.X..OO..OOOOOXOX..XO.o.OO.OO...OO.O.OOOOOO.OOX",
"OoOOOOOOoOOOOOX...OOOo..OOXXOo.OOX.OOOO.OOOXXO.OOOoOo...OO.OOOOX",
".OOOOO.O.OOOOOOOOOOOO.OOOOo.O.XOOOOO..OOOOOOO.OO.OOOOXOO..OO..oO",
".OOXO..OOXO.OOOOoo.OOOO.oO.OOoXOOOO.oOOOOOX.OXXOOOOOOOXOOOOXXOO.",
"..OOOOOXOOOOOX..OO..OOOOOOOOo.OOO.OOOOO.oO...X.OoXOXOoOOOOOOOOOO",
".OOOOOOO...OOOOOOXOOOX.O.oOO.OOo.OOO..OOO.OOXO.OOOOOoO.OOOX.OOO.",
"O.OOOXOO.XOOOXOOXXOOOOOOOOO...OoOOO.OO.OoO..OO.OOOOOXOOOoOOOXOOO",
"OoOX.OoOOO.XOO..O.OOOOOOXOOOXO.OXOOoO.OOOOOOO.oOOOOOOOXOoOOXXXX.",
"OO.o.OOXO.OXOOOXOOOXXOXXoOoO..XXOO.OXOXOOOOOXoXOO.OOO.OOXOOOOXOO",
"OOO.OOOOOOOOOOOoO.Oo.O..XOOOO.OOOOOOOOOOXOOOOOOOOOOXOX.XOOOOOO.O"
};
