/* XPM */
static char *bb1b19a30c954444809e72c379d7843aYzgZCOloBY3vayqz[] = {
/* columns rows colors chars-per-pixel */
"64 64 4 1 ",
"  c #285C35",
". c #14702D",
"X c #15752D",
"o c #246033",
/* pixels */
".ooooooo o.o oo.oXoooo.o.. o ooooo.Xooo ooo o.o.  ..ooo.oo ooooo",
"oo ooXo ooo.oo  .o.o .oo o.  Xo . o  o ooo  oo.oooo.o oooooo..oo",
"o. oooXoX  oo o. oo. ooooX oo.o  oo. o... oo ooooooo o o  oooooo",
"oo Xooo o.  o o o . o..oo.oo  .ooooo. o   o. ooooo.oo..oooo oXoo",
"oo. ooo .oooo  o  .o.  .oo...o .oo.  Xoo.oooo..oXooXoooooooooooo",
"o o.o o oooo.ooooooo o. oo .oo X oo oXoo o o.ooooooo oooo  o.o o",
"o.o  oo.oo oooo  oooooooo oooo oooooooX  o  o  o.o ooooooooo oo ",
"oXoo .ooo  ooooooo ooo  oo.ooooooooX.ooo oo .oooooooo ooo.oX..oo",
"  o o oo ooo. ooXo.oX oo Xo.o o. o. o oo X  o o.oooooooooooooooo",
"oooo.oo. .oXo  ooo ooXoooo o o.o oo  X o   o.o. ooo.XooooooXoooo",
". oXX.oo oooX .X o oo...ooo  oo.o  o ooo Xo oXoXooo o .oo.Xooooo",
"oo. oooooXooX..o..oo o o  oo Xoo.oooooo   ooo.o   o.ooooo.ooXoo.",
"ooooXoooooo.o.ooo oo ooX ..  o oXooo  o oooo.  .o ooo o.oooo.oo.",
"ooooooooo oo .oo  ooo.Xooooo ooX  ooX   o   oooo .oooXoooo ooo..",
"oo.ooo..oo o  oooooo ooooo Xooo o ..oo o.o    oooooo oooo.o ooo.",
"o.oooooooooooo.oooooo oo. oo.o X.o. oo o.o  o  . o. ooooo.o.. oo",
" oooX oo .o.oo  oo.oo o. o oo.o. oooooo oo oo  o o o.oo..oooo o.",
"o.oo  ooXo.o X.o.oooXooooooo Xo oo ooo.ooo ooooo oooooooX  o ooo",
" oo ooo.ooo ooooo  .ooooo o.o o.oooX oo.   o  oo.Xoooo o o.ooooo",
"  oo  oo ooo o.oo.o.o   .o.oo o.oo  o .  o X ooo o..o.ooo .  ooo",
"ooo  .  .  .o .  .   ooo  o.o  o .  o.o  .  . Xoooo o oo .oooo o",
"oooo o o oo .   ooo..ooo Xoo.X ..   o o  oo.oo oo   oooo Xoo.ooo",
"Xoo.  oooo .oo oo  .ooo o  oo o ooo oo o    .oo . ..    ooo.o oo",
" o o oXo .o o .oo.  oooo X.. Xoo. . oo . oooooo.oo.o.oo .o  .ooo",
"oooXo.  o.X . o .. Xoooo.o.o ooooo  o  oo.oooo o  ooooo oo..ooo ",
" ooo . .  oo.o   .ooooo.Xoo. . ..o.o.o . o oo. ooXoooooooooXoo..",
"X    oXoooo .ooo.o o. oX .  o .o o ..o .o o.ooo o X  .oooo o ooo",
"ooo XoXo    oo .o. o. oo o oooo o.o.oo  ooo .  ooooo  .o oo .ooo",
"oo. oXoo. o o  . . oo .o  .   o o.o.  o.oooo ooo X o oXo   o....",
"oo oooo.    o.oo.  o.  oooX o   o  oo ooo X..ooo.o o o .ooX  o o",
"oXo ooX ooooooo oo o o X  oo oo  ooo.o ..o o .. ooo.. ..o  oo. .",
" .o.o  ooo  o.  o o. X. oo    Xooo .o.oX ooo o.oo o  o Xoo ooooo",
".oo .o XXoooo..Xoooo  o.... ..  o  oo    o X   .o..o .ooo.X oooo",
" o ooooo.o.  ooooX.o  o.o Xoo.oooooo. .  oo o.oX oo.oooo  oXo...",
" X.o o .o   oXXX o. .o.o. oo    .    o. X.  o  o oooo. o ..ooo o",
"o ooXo oooooX o o o   . o    Xo   o     .Xoo.oooo. o o   XXooooo",
"oo o oo.oooooo oo o... . oo.oo  o o .. ooo ooo ooooo ooo oo o  o",
"ooooo ooo o .o . oo.   o o oo .o o oo Xo o . .o Xo   o..o     Xo",
"  o X ..o  o oo... o.o Xo.ooo .oooo  .. oooo  o oo.Xoooooo ooXoo",
"ooooooo ..oo oo ooo.oo. o.XoXXX. oooXoooo ooo.. ooo o.oooo .o Xo",
"oo.o o. o o oo  o.o o o ooX o o.o  o. oX.oooo oo.  o .o o o o o.",
"oooo o    .oo.oo       oo     o  oX   oooo.  o   .  Xoo o.oXooXo",
" oo .o ooXooo. o   .oo..X .  o .. o  ooo  o.X.o  o.oooooXoooo Xo",
" oo o o ooo o.ooo.  o.o oo.oo. oo o ooooo     o o  oX . oooo ooo",
"Xoo oooo ..oo.oo  X...o .oo oo o.X o o     oooo.X .Xoooooo Xoo o",
".oo.o.oo oo .o.o oo  ooo . oooo.     oo o.   oXo.o .oXoooXooooo.",
"ooo ooooXooo   oo.ooooX o . oo .  o .oooo o oo.ooo oo..ooo.o .oo",
" oooo.oo o oo ooo. o o o. .o o  ooooo. oo.o ooo oo ooX..ooo. Xoo",
"ooo ooooX oooo o.X.Xoo o  .oo ooo ...ooo ooooooXoo  oooooo   o  ",
"o  .o oo o oo o.o o  oooo    .oXoooooo o.o X  ooooXooo  o ooo o ",
"o.ooXo.o o .ooooo   oooo ooo o    o.Xo oooooooXoooo o.oooooo.oXo",
"oo o oooooo o o .oo..oo .XoXo.  X oo o  o o oo  ooooo o .ooXoooo",
"ooo .oXooo o oo . o...oooo. Xo oo o .oo o X.o oo.ooXooo. ooooooo",
"o oooooo .oo  ooooo ooXoX .o.oo  .oooo.oooo   ooo  X ooooooooo  ",
"   oo.oo    oXo  o .  oo  ooooo.o.  .o X oo oo   oo o oooooo oo.",
"oXooooooXooooo.   oooX  oo..oX oo. oooo ooo..o oooXoX   oo oooo.",
" ooooo o oooooooooooo ooooX o .ooooo  ooooooo oo oooo.oo  oo  Xo",
" oo.o  oo.o ooooXX oooo Xo ooX.oooo Xooooo. o..ooooooo.oooo..oo ",
"  ooooo.ooooo.  oo  ooooooooX ooo ooooo Xo   . oX.o.oXoooooooooo",
" ooooooo   oooooo.ooo. o Xoo ooX ooo  ooo oo.o oooooXo ooo. ooo ",
"o ooo.oo .ooo.oo..ooooooooo   oXooo oo oXo  oo ooooo.oooXooo.ooo",
"oXo. oXooo .oo  o oooooo.ooo.o o.ooXo ooooooo Xooooooo.oXoo.... ",
"oo X oo.o o.ooo.ooo..o..XoXo  ..oo o.o.ooooo.X.oo ooo oo.oooo.oo",
"ooo oooooooooooXo oX o  .oooo oooooooooo.oooooooooo.o. .oooooo o"
};
