/* XPM */
static char *c3be4e4e5c1b47f2f81c9563e3ff371dy5pwpE7RTxd0zKqs[] = {
/* columns rows colors chars-per-pixel */
"64 64 13 1 ",
"  c black",
". c #2B200D",
"X c #285C35",
"o c #14702D",
"O c #15752D",
"+ c #246033",
"@ c #57401C",
"# c #242970",
"$ c #255D61",
"% c #464646",
"& c #AB8052",
"* c #2F3699",
"= c #327F85",
/* pixels */
"o+++++++X+o+X++o+O++++o+ooX+X+++++oO+++X+++X+o+oXXoo+++o++X+++++",
"++X++O+X+++o++XXo+o+Xo++X+oXXO+XoX+XX+X+++XX++o++++o+X++++++oo++",
"+oX+++O+OXX++X+oX++oX++++OX++o+XX++oX+oooX++X+++++++X+X+XX++++++",
"++XO+++X+oXX+X+X+XoX+oo++o++XXo+++++oX+XXX+oX+++++o++oo++++X+O++",
"++oX+++Xo++++XX+XXo+oXXo++ooo+Xo++oXXO++o++++oo+O++O++++++++++++",
"+X+o+X+X++++o+++++++X+oX++Xo++XOX++X+O++X+X+o+++++++X++++XX+o+X+",
"+o+XX++o++X++++XX++++++++X++++X+++++++OXX+XX+XX+o+X+++++++++X++X",
"+O++Xo+++XX+++++++X+++XX++o++++++++Oo+++X++Xo++++++++X+++o+Ooo++",
"XX+X+X++X+++                                       +++++++++++++",
"++++o++oXo+O ..................................... oO++++++O++++",
"oX+OOo++X++ ....................................... +Xo++oO+++++",
"++oX+++++O+ ....................................... +++++o++O++o",
"++++O++++++ ....................................... +X+o++++o++o",
"+++++++++X+ ....................................... +O++++X+++oo",
"++o+++oo++X ....................................... X++++o+X+++o",
"+o+++++++++ ....................................... +++++o+ooX++",
"X+++OX++Xo+ ............&&&&&&&&&&&&&&&&&&&&&&..... o++oo++++X+o",
"+o++XX++O+o ...@@......&&&&&&&&&&&&&&&&&&&&&&&&.... ++++OXX+X+++",
"X++X+++o+++ ..@@@@@....&&&&&&&&&&&&&&&&&&&&&&&&.... ++X+X+o+++++",
"XX++XX++X++ ..@@&&@...&&&&&&&&&&&&&&&&&&&&&&&&&&... +o+++XoXX+++",
"+++XXoXXoXX ..@&&&@...&&&&&&&&&&&&&&&&&&&&&&&&&&&@@ +X++Xo++++X+",
"++++X+X+X++ ..@&&&&...&&&***&&&&&&&&&&&&&&***&&&&@@ ++++XO++o+++",
"O++oXX++++X ..@@&&@&&&&&&***&&&&&&&&&&&&&&***&&&&&@ XXXX+++o+X++",
"X+X+X+O+Xo+ ..@@@@@&&&&&&***&&&&&&&&&&&&&&***&&&&&@ o++Xo+XXo+++",
"+++O+oXX+oO ......&&&&&&&&&&&&&&&&&&&&&&&&&&&&&&&&@ +++X++oo+++X",
"X+++XoXoXX+ .....&&&&&&&&&&&&&&&&&&&&&&&&&&&&&&&&&@ +++++++O++oo",
"OXXXX+O++++ ....&&&&&&&&&&&&&&&&&&&&&&&&&&&&&&&&&&@ Xo++++X+X+++",
"+++XO+O+XXX ....&&&&&&&&&&&&&&&..&&&&&..&&&&&&&&&&@ XXo+X++Xo+++",
"++oX+O++oX+ ....&&&&&&&&&&&&&&&..&&&&&..&&&&&&&&&&@ X+O+XXX+oooo",
"++X++++oXXX ....&&&&&&&&&&&&&&&.........&&&&&&&&&&@ X+Xo++OXX+X+",
"+O+X++OX+++ ....&&&&&&&&&&&&&&&.........&&&&&&&&&@@ oXoo+XX++oXo",
"Xo+o+XX+++X ....&&&&&&&&&&&&&&&&&&&&&&&&&&&&&&&&&@@ X+XO++X+++++",
"o++Xo+XOO++ ....&&&&&&&&&&&&&&&&&&&&&&&&&&&&&&&&@@  Xo+++oOX++++",
"X+X+++++o+oX  ..&&&&&&&&&&&&&&&&&&&&&&&&&&&&&&&&@ +o++++XX+O+ooo",
"XOo+X+Xo+XXX+  @&&&&&&&&&&&&&&&&&&&&&&&&&&&&&&&@ ++++oX+Xoo+++X+",
"+X++O+X+++++O  @@@@@@@@@@@@@@@@@@@@@@@@@@@@@@@@@ oX+X+XXXOO+++++",
"++X+X++o++++  ============&&&&&&&&&&@============ ++X+++X++X+XX+",
"+++++X+++X+X =============@&&&&&&&&@@============= XX+oo+XXXXXO+",
"XX+XOXoo+XX ===============@&&&&&&@@=============== ++++++X++O++",
"+++++++Xoo+ ================@@@@@@@@=============== +o++++Xo+XO+",
"++o+X+oX+X+ ========$========@@@@@=========$======= Xo+X+X+X+X+o",
"++++X+XXXXo =======$$======================$$====== O++X+o+O++O+",
"X++Xo+X++O+ &&@@@@@$$======================$$&&@@@@@ +++O++++XO+",
"X++X+X+X+++ &@@&&&@@$=======================$&@@&&&@@ oX++++X+++",
"O++X++++Xo @@&&&&&&@@=======================@@@&&&&&&@ +++XO++X+",
"o++o+o++X+ @&&&&&&&@@=======================@@&&&&&&&@ ++O+++++o",
"+++X++++O+ @&&&&&&&@@=======================@@&&&&&&&@ +++o+Xo++",
"X++++o++X+ @&&&&&&&@@=======================@@&&&&&&&@ o+++oXO++",
"+++X++++OX @&&&&&&&@@#################======@@&&&&&&&@ +++XXX+XX",
"+XXo+X++X+ @@@&&&&@@###################=====@@@&&&&&@@ X+X+++X+X",
"+o++O+o+X+X  @&&&&@@######################====@@&&&@@ ++++++o+O+",
"++X+X++++++X @@@@@@############################@@@@@ X+Xo++O++++",
"+++Xo+O+++X+X   ###############################     +++oX+++++++",
"+X++++++Xo++XX+ ##############   ############## +XXOX+++++++++XX",
"XXX++o++XXXX+O+X ############ +o+ ############ XX++X+X++++++X++o",
"+O++++++O+++++oXX ########### X++ ###########  +++O+OXXX++X++++o",
"X+++++X+X++++++++ ##########  o++  ########## ++X++++o++XX++XXO+",
"X++o+XX++o+X++++O            Oo+++            o+++++++o++++oo++X",
"XX+++++o+++++oXX+ %%%%%%%%% OX+++X+ %%%%%%%%% X+Oo+o+O++++++++++",
"X+++++++XXX++++++ %%%%%%%%% X++OX++ %%%%%%%%% X+++++O+X+++oX+++X",
"+X+++o++Xo+++o++o  %%%%%%%  XX+O+++  %%%%%%%  X+++++o+++O+++o+++",
"+O+oX+O+++Xo++XX+X         +o+X+o++O         XO+++++++o+O++ooooX",
"++XOX++o+X+o+++o+++oo+ooO+O+XXoo++X+o+o+++++oOo++X+++X++o++++o++",
"+++X+++++++++++O+X+OX+XXo++++X++++++++++o++++++++++o+oXo++++++X+"
};
