/* XPM */
static char *_1fbc2fa8ffd406aebf65f3a179f6b38CTwRe1TqjmtOfvff[] = {
/* columns rows colors chars-per-pixel */
"64 64 3 1 ",
"  c #3D3C3D",
". c #464646",
"X c gray34",
/* pixels */
"...........        ........       .......      .....     .......",
"..........  XXXX    ......  XXXXX  ....   XXXX  ...  XXX ....X..",
"..      .  XXXXXXXX  ....  XXXXXXX .... XXXXXXX  .  XXXX   ..XX.",
".. XXXX   XXXXXXXXX  .... XXXXXXXX  ..  XXXXXXXX . XXXXXXX  .XX.",
".  XXXXXX XXXXXXXX      . XXXXXXXXX .. XXXXXXXXX  XXXXXXXXX .XX.",
"  XXXXXXX  XXXXXX   XXX   XXXXXXXXX .. XXXXXXXXX  XXXXXXXXX .XXX",
" XXXXXXXXX          XXXX   XXXXXXX     XXXXXXXXX  XXXXXXXXX ....",
" XXXXXXXXX   XXX   XXXXX .  XXXXX  XXX  XXXXXXX   XXXXXXXXX ....",
" XXXXXXXX   XXXXX  XXXXX ..       XXXXX XXXXXX    XXXXXXXXX ....",
"  XXXXXXX  XXXXXXX XXXXX .        XXXXX   XXX      XXXXXXX  ....",
". XXXXXXX  XXXXXXX XXXX    XXXXX  XXXXX        XXX  XXXXX      .",
".   XXX    XXXXXXX  XXX   XXXXXXX      XXX    XXXXX  XXX   XXX  ",
"...     .. XXXXXX        XXXXXXXXX   XXXXXXX  XXXXX       XXXXX ",
".....        XXX   XXX   XXXXXXXXX   XXXXXXX  XXXXX    .. XXXXX ",
".... XXXXX        XXXXXX XXXXXXXXX  XXXXXXXXX  XXX  XX    XXXXX ",
"... XXXXXXX  ..  XXXXXXX  XXXXXXX   XXXXXXXXX .    XXXXX  XXXXX ",
".. XXXXXXXXX    XXXXXXXXX  XXXXX    XXXXXXXXX .... XXXXX  XXXXX ",
". XXXXXXXXXXX   XXXXXXXXX            XXXXXXX  .... XXXXX   XXX  ",
"  XXXXXXXXXXX . XXXXXXXXX ..  XXXXX  XXXXXXX        XXX .     ..",
" XXXXXXXXXXXX .  XXXXXXX. .  XXXXXXX   XXX     XXXXX    .     ..",
" XXXXXXXXXXXX    XXXXXXX .. XXXXXXXXX         XXXXXXX ..  XXX  .",
" XXXXXXXXXXXX XX  XXXX      XXXXXXXXX .XXX   XXXXXXXXX   XXXXX .",
" XXXXXXXXXXX   X        XX  XXXXXXXXX XXXXX XXXXXXXXXXX XXXXXXX ",
" XXXXXXXXXX           XXXXX  XXXXXXX .XXXXX XXXXXXXXXXX XXXXXXX ",
"  XXXXXXXX  .. XXXXX  XXXXX   XXXXX  .XXXXX XXXXXXXXXXX  XXXXXX ",
".          .. XXXXXXX XXXXX          XXXXXX XXXXXXXXXXX  XXXXX  ",
"..  XX ..... XXXXXXXXX XXX      .... XXXXXX XXXXXXXXXXX   XXX. .",
".  XXX  ... XXXXXXXXXXX    XXXXX  ..  XXXX   XXXXXXXXX ..      .",
". XXXXXX .. XXXXXXXXXXX   XXXXXXX  ..      .  XXXXXXX ..     ...",
". XXXXXX .. XXXXXXXXXXX  XXXXXXXXX ....   .... XXXXX .   XXX   .",
". XXXXX  ... XXXXXXXXX  XXXXXXXXXXX .. XXX ....     .. XXXXXXX .",
". XXXX        XXXXXXX   XXXXXXXXXXX . XXXXX .......... XXXXXXX  ",
".      XXXXX   XXXXX  . XXXXXXXXXXX  XXXXXXX ..     .. XXXXXXX  ",
"...  XXXXXXXXX       ..  XXXXXXXXX . XXXXXXXX . XXX    XXXXXXX  ",
"... XXXXXXXXXXX ....       XXXXXX  . XXXXXXXX   XXXXX   XXXXXX .",
"    XXXXXXXXXXX ...  XXXXX  XXXX ... XXXXXXXX  XXXXXX .   XXX  .",
" X  XXXXXXXXXXX ... XXXXXXX        ..XXXXXXXX   XXXXX ...      .",
"XX.  XXXXXXXXX  ..  XXXXXXXX. XXXX  . XXXXXXX .  XXX  ..  XXXX  ",
"XXX .  XXXX    .    XXXXXXX   XXXXXX . XXX   ....        XXXXXX ",
"   ..      ...   XX  XXXXX   XXXXXXXX .       ... XXXXX  XXXXX  ",
"...   XXXX   . XXXXX.     . XXXXXXXXX .. XXXX  .  XXXXX        .",
".   XXXXXXXX   XXXXXX..     XXXXXXXXX   XXXXXXX  XXXXXXX  ......",
". XXXXXXXXXXX  XXXXX .  XXX  XXXXXXX . XXXXXXXXX XXXXXXX  ... ..",
"  XXXXXXXXXXXX  XXX    XXXXX  XXXXX . XXXXXXXXXXX XXXXX  .     .",
" XXXXXXXXXXXXX .   .. XXXXXXX       . XXXXXXXXXXX       .  XX  .",
"  XXXXXXXXXXXX ...... XXXXXXX .. XXX  XXXXXXXXXXX .. XXX  XXXX .",
".  XXXXXXXXXX  ...    XXXXXXX    XXXX  XXXXXXXXX  .  XXXX  XXX .",
"..  XXXXXX   ....  XX  XXXXX . XXXXXXX  XXXXXXX  .  XXXXXX  XX .",
"...         ....  XXXX  XXX  . XXXXXXX   XXXXX  .. XXXXXXX     .",
"...     ..    .  XXXXXX        XXXXXXX .           XXXXXX  .....",
"..  XXX    X    XXXXXXXX   XXX  XXXXX  ......  XXX  XXXX        ",
".  XXXXXX  XXX XXXXXXXXX  XXXXX  XXX  .     . XXXXX  XXX . XXXX ",
". XXXXXXX   XX XXXXXXXXX XXXXXXX     .  XXX   XXXXX      . XXXX ",
"  XXXXXXXX     XXXXXXXXX XXXXXXX . X  XXXXXX  XXXXX   XX . XXX  ",
" XXXXXXXXX     XXXXXXXXX XXXXXXX  XXX XXXXXXX  XXX  XXXX .     .",
" XXXXXXXXX       XXXXXX   XXXXX       XXXXXXX        XX    .....",
"  XXXXXXX   XX    XXXX     XX   ....  XXXXXXX           XX    ..",
".  XXXXXX  XXXXX   X  XXX     ..   .. XXXXXXX  XXX  .  XXXXXX  .",
"..  XXX    XXXXX .   XXXX  .. XXXX  .  XXXXX  XXXXX . XXXXXXXX .",
"....    .. XXXXX ..  XXXXX .  XXXXX  .  XXX   XXXXX . XXXXXXXX .",
"..     ... XXXX  ... XXXXX . XXXXXXX ..     . XXXXX .  XXXXXXX .",
". XXXX  .. XXXX  ...  XXX  . XXXXXX  . XXX ... XXX  .. XXXXXXX .",
".  XXXX .. .XXX  ....     ..  XXX   .. XXX  ..     ...   XXXX  .",
"..      ..      .............     ....      ............      .."
};
